<?xml version="1.0" encoding="UTF-8" standalone="no"?>
<svg
   xmlns:dc="http://purl.org/dc/elements/1.1/"
   xmlns:cc="http://creativecommons.org/ns#"
   xmlns:rdf="http://www.w3.org/1999/02/22-rdf-syntax-ns#"
   xmlns:svg="http://www.w3.org/2000/svg"
   xmlns="http://www.w3.org/2000/svg"
   width="128.00002"
   height="87.180016"
   viewBox="0 0 33.86667 23.06638"
   version="1.1"
   id="svg1">
  <defs
     id="defs1" />
  <metadata
     id="metadata1">
    <rdf:RDF>
      <cc:Work
         rdf:about="">
        <dc:format>image/svg+xml</dc:format>
        <dc:type
           rdf:resource="http://purl.org/dc/dcmitype/StillImage" />
        <dc:title></dc:title>
      </cc:Work>
    </rdf:RDF>
  </metadata>
  <g
     id="layer1"
     transform="translate(146.46486,-10.289248)">
    <path
       id="path1"
       style="opacity:1;fill:#4a4a4a;fill-opacity:1;stroke-width:0.0869025"
       d="m -137.50706,10.28934 c -0.86227,0 -1.55645,0.735284 -1.55645,1.648611 0,0.913326 0.69418,1.648613 1.55645,1.648613 h 5.11438 c 0.86227,0 1.55645,-0.735287 1.55645,-1.648613 0,-0.913327 -0.69418,-1.648611 -1.55645,-1.648611 z m 9.57665,0 c -0.86227,0 -1.55645,0.735284 -1.55645,1.648611 0,0.901908 0.67728,1.628848 1.52454,1.646914 h 0.92843 c 0.0108,0 0.0212,0.0013 0.0319,0.0016 h 0.14003 l -0.003,0.0083 c 0.78216,0.08871 1.38756,0.785796 1.38756,1.638599 0,0.91333 -0.69418,1.648612 -1.55645,1.648612 h -1.05488 l -0.001,0.003 c -0.0119,-0.0013 -0.024,-0.002 -0.036,-0.003 h -0.51921 c -0.0399,0 -0.079,-0.0033 -0.11813,-0.0063 h -2.38154 c -0.86227,0 -1.55645,0.871449 -1.55645,1.648612 0,0.76802 0.67808,1.627469 1.52624,1.647593 0.0291,-0.0017 0.0579,-0.0046 0.0874,-0.0046 h 1.6111 c 0.0356,0 0.0703,0.0033 0.10524,0.0056 h 0.0575 l -0.001,0.0033 c 0.78576,0.08513 1.39487,0.784292 1.39487,1.639787 0,0.913332 -0.69418,1.648616 -1.55645,1.648616 h -1.06253 l -0.003,0.0073 c -0.045,-0.0047 -0.0907,-0.0067 -0.13681,-0.0073 h -0.40905 c -0.006,0 -0.0127,-8.75e-4 -0.0192,-8.75e-4 h -5.66143 c -0.86227,0 -1.55645,0.735282 -1.55645,1.648609 0,0.913329 0.69418,1.648613 1.55645,1.648613 h 3.22203 1.61111 0.16905 l -0.004,0.0095 c 0.78383,0.08705 1.39096,0.785053 1.39096,1.63911 0,0.913328 -0.69418,1.648612 -1.55645,1.648612 h -1.05846 l -0.003,0.0078 c -0.0486,-0.0051 -0.098,-0.0075 -0.14783,-0.0078 h -0.40193 c -0.003,0 -0.006,-7.5e-4 -0.01,-7.5e-4 h -11.35171 c -0.86227,0 -1.55645,0.735283 -1.55645,1.648612 0,0.913331 0.69418,1.648612 1.55645,1.648612 h 10.6867 l -4.3e-4,10e-4 h 5.05345 l 1.58412,-4.752512 h 8.33285 l 1.60007,4.752512 h 5.05346 l -8.63368,-23.065529 h -4.40393 l -0.004,0.01019 c -0.0576,-0.0068 -0.11594,-0.01104 -0.17533,-0.01104 z m 4.49757,5.830651 2.89903,8.633787 h -5.76649 z m -16.5289,0.75582 c -0.86227,0 -1.55644,0.871451 -1.55644,1.648613 0,0.777161 0.69417,1.648613 1.55644,1.648613 h 4.34703 c 0.86226,0 1.55644,-0.735286 1.55644,-1.648613 0,-0.913329 -0.69418,-1.648613 -1.55644,-1.648613 z m -2.45891,6.58783 c -0.86227,0 -1.55645,0.735284 -1.55645,1.648612 0,0.913328 0.69418,1.648612 1.55645,1.648612 h 1.1939 c 0.86227,0 1.55645,-0.735284 1.55645,-1.648612 0,-0.913328 -0.69418,-1.648612 -1.55645,-1.648612 z" />
  </g>
</svg>
