<svg
    xmlns="http://www.w3.org/2000/svg"
    width="100%"
    height="100%"
    viewBox="0 0 541.86665 541.86668">
    <defs>
        <rect
        x="104.08073"
        y="178.4241"
        width="77.473633"
        height="35.997849"/>
    </defs>
    <g>
        <path
            opacity="0.5"
            fill="#5753c9"
            strokeWidth="0.998437"
            transform="matrix(-0.17364818,-0.98480775,0.98480775,0.17364818,0,0)"
            d="m -384.0452,9.876483 h 153.56073 c 40.90036,0 73.82737,32.927003 73.82737,73.827362 V 237.26458 c 0,40.90035 -32.92701,73.82736 -73.82737,73.82736 H -384.0452 c -40.90036,0 -73.82736,-32.92701 -73.82736,-73.82736 V 83.703845 c 0,-40.900359 32.927,-73.827362 73.82736,-73.827362 z" />
        <path
            opacity="0.5"
            fill="#5753c9"
            strokeWidth="0.998437"
            transform="matrix(-0.98480775,-0.17364818,-0.17364818,-0.98480775,0,0)"
            d="m -286.19144,-408.94568 h 153.56073 c 40.900362,0 73.827365,32.927 73.827365,73.82736 v 153.56073 c 0,40.90036 -32.927003,73.82737 -73.827365,73.82737 h -153.56073 c -40.90036,0 -73.82736,-32.92701 -73.82736,-73.82737 v -153.56073 c 0,-40.90036 32.927,-73.82736 73.82736,-73.82736 z" />
        <path
            opacity="0.5"
            fill="#5753c9"
            strokeWidth="0.998437"
            transform="matrix(-0.98480775,-0.17364818,-0.17364818,-0.98480775,0,0)"
            d="m -335.11832,-360.0188 h 153.56073 c 40.90036,0 73.82737,32.927 73.82737,73.82736 v 153.56073 c 0,40.900362 -32.92701,73.827365 -73.82737,73.827365 h -153.56073 c -40.90036,0 -73.82736,-32.927003 -73.82736,-73.827365 v -153.56073 c 0,-40.90036 32.927,-73.82736 73.82736,-73.82736 z" />
        <path
            opacity="1"
            fill="#5753c9"
            strokeWidth="0.998437"
            transform="matrix(-0.98480775,-0.17364818,-0.17364818,-0.98480775,0,0)"
            d="m -384.0452,-311.09192 h 153.56073 c 40.90036,0 73.82737,32.927 73.82737,73.82736 v 153.560733 c 0,40.900359 -32.92701,73.8273622 -73.82737,73.8273622 H -384.0452 c -40.90036,0 -73.82736,-32.9270032 -73.82736,-73.8273622 V -237.26456 c 0,-40.90036 32.927,-73.82736 73.82736,-73.82736 z" />
    </g>
</svg>