<?xml version="1.0" encoding="UTF-8" standalone="no"?>
<svg
   width="3000"
   height="1897.3145"
   viewBox="0 0 793.74998 501.99781"
   version="1.1"
   xmlns="http://www.w3.org/2000/svg"
   xmlns:svg="http://www.w3.org/2000/svg"
   xmlns:rdf="http://www.w3.org/1999/02/22-rdf-syntax-ns#"
   xmlns:cc="http://creativecommons.org/ns#"
   xmlns:dc="http://purl.org/dc/elements/1.1/">
  <g
     transform="translate(-144.99166,-290.86778)">
    <g
       transform="matrix(7.1478393,0,0,7.1478393,57.719365,76.634056)">
      <path
         style="font-style:normal;font-variant:normal;font-weight:bold;font-stretch:normal;font-size:98.7778px;fill:#6e6e6e;stroke-width:0.264583"
         d="m 74.216659,29.971814 -5.17e-4,0.001 h -4.587834 c -2.295506,0 -4.143416,2.238116 -4.143416,5.018816 0,2.780699 1.84791,5.019331 4.143416,5.019331 h 1.824178 c 2.584167,0.04953 4.651396,2.265238 4.651396,5.014681 0,2.780694 -2.113492,5.019332 -4.738729,5.019332 h -4.853967 l -0.03101,0.08113 c -0.306503,-0.0655 -0.624035,-0.100252 -0.949296,-0.100252 h -8.797913 c -2.625246,0 -4.738729,2.653205 -4.738729,5.019332 0,2.366127 2.113483,5.019332 4.738729,5.019332 h 7.526156 c 2.469299,0.17921 4.408516,2.33921 4.408516,5.001762 0,2.780693 -2.113485,5.019332 -4.738729,5.019332 h -2.547131 c -0.03769,-9.29e-4 -0.07527,-0.0031 -0.113171,-0.0031 h -2.380734 c -0.02252,-6.89e-4 -0.04522,-5.55e-4 -0.0677,-0.0015 l -5.16e-4,0.0015 H 42.787052 c -2.625247,0 -4.738728,2.238633 -4.738728,5.019332 0,2.780698 2.113481,5.019332 4.738728,5.019332 h 12.178585 v 5.16e-4 h 1.477946 c 2.625246,0 4.738729,2.238637 4.738729,5.019332 0,2.780698 -2.113483,5.019332 -4.738729,5.019332 h -3.654557 c -0.01885,-2.31e-4 -0.03742,-0.0015 -0.05633,-0.0015 h -1.227832 c -0.129601,-0.001 -0.258081,-0.0064 -0.38499,-0.01809 l -0.0067,0.01809 h -34.16484 c -2.625245,0 -4.738728,2.238635 -4.738728,5.019332 0,2.780707 2.113484,5.019334 4.738728,5.019334 h 30.310812 l -0.0015,0.005 h 3.704166 2.827735 3.704166 l 5.17e-4,-0.002 h 15.31276 l 4.822962,-14.469403 h 25.370028 l 4.87154,14.469403 h 15.38563 L 96.970825,29.975431 H 84.564864 l 0.0015,-0.0036 h -3.704166 -2.941423 z m 16.050183,17.752922 8.826334,26.28625 H 81.536625 Z" />
      <path
         style="fill:#6e6e6e;fill-opacity:1;stroke-width:0.236122"
         d="m 31.233825,50.025813 h 11.078586 c 2.197545,0 3.966707,2.2387 3.966707,5.019498 0,2.780803 -1.769162,5.019502 -3.966707,5.019502 H 31.233825 c -2.197545,0 -3.966707,-2.653288 -3.966707,-5.019502 0,-2.366215 1.769162,-5.019498 3.966707,-5.019498 z" />
      <path
         style="fill:#6e6e6e;fill-opacity:1;stroke-width:0.252112"
         d="m 24.302792,70.083 h 3.468879 c 2.505221,0 4.522061,2.238698 4.522061,5.0195 0,2.780804 -2.01684,5.0195 -4.522061,5.0195 h -3.468879 c -2.505221,0 -4.52206,-2.238696 -4.52206,-5.0195 0,-2.780802 2.016839,-5.0195 4.52206,-5.0195 z" />
      <path
         style="fill:#6e6e6e;fill-opacity:1;stroke-width:0.258074"
         d="M 39.479254,29.972597 H 55.05058 c 2.625249,0 4.738716,2.238615 4.738716,5.019317 0,2.780702 -2.113467,5.019317 -4.738716,5.019317 H 39.479254 c -2.625247,0 -4.738716,-2.238615 -4.738716,-5.019317 0,-2.780702 2.113469,-5.019317 4.738716,-5.019317 z" />
    </g>
  </g>
</svg>
